<svg xmlns="http://www.w3.org/2000/svg" id="SvgjsSvg334290" width="4096" height="1686.7634252347268" version="1.1" xmlns:xlink="http://www.w3.org/1999/xlink" xmlns:svgjs="http://svgjs.com/svgjs"><defs id="SvgjsDefs334291"></defs><g id="SvgjsG334292" transform="translate(328, 328) scale(34.4)" opacity="1"><defs id="SvgjsDefs82428"><linearGradient id="SvgjsLinearGradientrG2cN2jtd" gradientUnits="userSpaceOnUse" x1="-136.23525259491916" y1="62.308486840225875" x2="138.1052525949191" y2="-109.11848684022587"><stop id="SvgjsStop82431" stop-color="#104077" offset="0.308"></stop><stop id="SvgjsStop82432" stop-color="#1a76e4" offset="0.91"></stop></linearGradient></defs><g id="SvgjsG82429" transform="scale(0.21645021645021648)" opacity="1"><g id="SvgjsG82433" class="text" transform="translate(285.3544913854693, 73.73928443786984) scale(1)" light-content="false" fill="url(#SvgjsLinearGradientrG2cN2jtd)"><path d="M-174.29 -0.48C-173.97 -0.16 -173.59 0 -173.16 0L-142.26 0C-141.79 0 -141.39 -0.15 -141.07 -0.45C-140.75 -0.75 -140.58 -1.14 -140.58 -1.61L-140.58 -7.98C-140.58 -8.46 -140.75 -8.85 -141.07 -9.17C-141.39 -9.5 -141.79 -9.66 -142.26 -9.66L-163.12 -9.66L-163.12 -18.03L-144.19 -18.03C-143.72 -18.03 -143.32 -18.19 -143 -18.51C-142.68 -18.83 -142.52 -19.23 -142.52 -19.7L-142.52 -25.56C-142.52 -26.03 -142.68 -26.43 -143 -26.75C-143.32 -27.07 -143.72 -27.23 -144.19 -27.23L-163.12 -27.23L-163.12 -35.41L-142.77 -35.41C-142.3 -35.41 -141.9 -35.56 -141.58 -35.86C-141.26 -36.16 -141.1 -36.55 -141.1 -37.02L-141.1 -43.4C-141.1 -43.87 -141.26 -44.26 -141.58 -44.59C-141.9 -44.91 -142.3 -45.07 -142.77 -45.07L-173.16 -45.07C-173.64 -45.07 -174.02 -44.91 -174.32 -44.59C-174.62 -44.26 -174.77 -43.87 -174.77 -43.4L-174.77 -1.61C-174.77 -1.18 -174.61 -0.8 -174.29 -0.48Z M-133.7 -38.6C-133.39 -38.28 -133.01 -38.12 -132.54 -38.12L-124.49 -38.12C-124.02 -38.12 -123.62 -38.28 -123.3 -38.6C-122.98 -38.92 -122.81 -39.32 -122.81 -39.79L-122.81 -45.78C-122.81 -46.25 -122.98 -46.65 -123.3 -46.97C-123.62 -47.29 -124.02 -47.45 -124.49 -47.45L-132.54 -47.45C-132.97 -47.45 -133.34 -47.29 -133.66 -46.97C-133.98 -46.65 -134.15 -46.25 -134.15 -45.78L-134.15 -39.79C-134.15 -39.32 -134 -38.92 -133.7 -38.6ZM-133.66 -0.48C-133.34 -0.16 -132.97 0 -132.54 0L-124.49 0C-124.02 0 -123.62 -0.15 -123.3 -0.45C-122.98 -0.75 -122.81 -1.14 -122.81 -1.61L-122.81 -31.87C-122.81 -32.34 -122.98 -32.73 -123.3 -33.03C-123.62 -33.33 -124.02 -33.48 -124.49 -33.48L-132.54 -33.48C-132.97 -33.48 -133.34 -33.33 -133.66 -33.03C-133.98 -32.73 -134.15 -32.34 -134.15 -31.87L-134.15 -1.61C-134.15 -1.18 -133.98 -0.8 -133.66 -0.48Z M-114.99 -0.48C-114.67 -0.16 -114.29 0 -113.86 0L-105.3 0C-104.83 0 -104.44 -0.16 -104.14 -0.48C-103.84 -0.8 -103.69 -1.18 -103.69 -1.61L-103.69 -19.19C-103.69 -21.08 -103.2 -22.55 -102.21 -23.6C-101.22 -24.65 -99.87 -25.17 -98.15 -25.17C-96.39 -25.17 -95.05 -24.66 -94.13 -23.63C-93.21 -22.6 -92.75 -21.12 -92.75 -19.19L-92.75 -1.61C-92.75 -1.14 -92.59 -0.75 -92.26 -0.45C-91.94 -0.15 -91.54 0 -91.07 0L-82.51 0C-82.04 0 -81.65 -0.16 -81.35 -0.48C-81.05 -0.8 -80.9 -1.18 -80.9 -1.61L-80.9 -19.57C-80.9 -22.66 -81.45 -25.3 -82.54 -27.49C-83.64 -29.68 -85.14 -31.33 -87.05 -32.45C-88.96 -33.57 -91.14 -34.12 -93.58 -34.12C-95.94 -34.12 -98.04 -33.69 -99.86 -32.84C-101.69 -31.98 -103.18 -30.84 -104.34 -29.42L-104.34 -31.87C-104.34 -32.34 -104.49 -32.73 -104.79 -33.03C-105.09 -33.33 -105.47 -33.48 -105.95 -33.48L-113.86 -33.48C-114.29 -33.48 -114.67 -33.33 -114.99 -33.03C-115.31 -32.73 -115.47 -32.34 -115.47 -31.87L-115.47 -1.61C-115.47 -1.18 -115.31 -0.8 -114.99 -0.48Z M-68.67 -0.84C-66.31 0.15 -63.37 0.64 -59.85 0.64C-54.69 0.64 -50.69 -0.31 -47.84 -2.22C-44.98 -4.13 -43.56 -6.7 -43.56 -9.92C-43.56 -12.4 -44.51 -14.58 -46.42 -16.45C-48.33 -18.32 -51.39 -19.62 -55.6 -20.35C-57.91 -20.77 -59.64 -21.18 -60.78 -21.57C-61.92 -21.96 -62.67 -22.35 -63.03 -22.76C-63.4 -23.17 -63.58 -23.69 -63.58 -24.34C-63.58 -25.07 -63.28 -25.67 -62.68 -26.14C-62.08 -26.61 -61.24 -26.85 -60.17 -26.85C-59.27 -26.85 -58.53 -26.71 -57.95 -26.43C-57.37 -26.15 -56.69 -25.75 -55.92 -25.24C-55.4 -24.85 -54.89 -24.53 -54.37 -24.27C-54.16 -24.1 -53.86 -24.02 -53.47 -24.02L-46.39 -24.02C-46 -24.02 -45.67 -24.17 -45.39 -24.47C-45.11 -24.77 -44.97 -25.11 -44.97 -25.5C-44.97 -26.61 -45.57 -27.85 -46.78 -29.2C-47.98 -30.55 -49.73 -31.71 -52.02 -32.68C-54.32 -33.64 -57.03 -34.12 -60.17 -34.12C-63.26 -34.12 -65.91 -33.63 -68.12 -32.64C-70.33 -31.66 -72 -30.36 -73.14 -28.75C-74.28 -27.14 -74.85 -25.45 -74.85 -23.69C-74.85 -18.33 -71.13 -14.89 -63.71 -13.39C-61.39 -12.96 -59.66 -12.54 -58.53 -12.14C-57.39 -11.73 -56.62 -11.31 -56.21 -10.88C-55.8 -10.45 -55.6 -9.89 -55.6 -9.21C-55.6 -8.39 -55.97 -7.76 -56.72 -7.31C-57.47 -6.86 -58.43 -6.63 -59.59 -6.63C-60.58 -6.63 -61.42 -6.79 -62.13 -7.11C-62.84 -7.44 -63.6 -7.9 -64.42 -8.5C-64.5 -8.58 -64.91 -8.86 -65.64 -9.34C-65.81 -9.51 -66.03 -9.59 -66.28 -9.59L-74.07 -9.59C-74.46 -9.59 -74.82 -9.45 -75.14 -9.17C-75.46 -8.9 -75.62 -8.54 -75.62 -8.11C-75.62 -7 -75.05 -5.75 -73.91 -4.38C-72.78 -3 -71.03 -1.82 -68.67 -0.84Z M-34.28 -12.81C-34.28 -4.27 -29.74 0 -20.64 0L-14.52 0C-14.05 0 -13.66 -0.16 -13.36 -0.48C-13.06 -0.8 -12.91 -1.18 -12.91 -1.61L-12.91 -7.53C-12.91 -8.01 -13.06 -8.4 -13.36 -8.72C-13.66 -9.05 -14.05 -9.21 -14.52 -9.21L-19.61 -9.21C-20.85 -9.21 -21.75 -9.59 -22.31 -10.37C-22.87 -11.14 -23.15 -12.28 -23.15 -13.78L-23.15 -24.72L-15.1 -24.72C-14.63 -24.72 -14.23 -24.87 -13.91 -25.17C-13.59 -25.47 -13.42 -25.86 -13.42 -26.33L-13.42 -31.87C-13.42 -32.34 -13.59 -32.73 -13.91 -33.03C-14.23 -33.33 -14.63 -33.48 -15.1 -33.48L-23.15 -33.48L-23.15 -44.1C-23.15 -44.58 -23.3 -44.96 -23.6 -45.26C-23.9 -45.56 -24.28 -45.71 -24.76 -45.71L-32.68 -45.71C-33.1 -45.71 -33.48 -45.56 -33.8 -45.26C-34.12 -44.96 -34.28 -44.58 -34.28 -44.1L-34.28 -33.48L-39.37 -33.48C-39.8 -33.48 -40.18 -33.33 -40.5 -33.03C-40.82 -32.73 -40.98 -32.34 -40.98 -31.87L-40.98 -26.33C-40.98 -25.9 -40.82 -25.53 -40.5 -25.21C-40.18 -24.88 -39.8 -24.72 -39.37 -24.72L-34.28 -24.72Z M-4.35 -3.57C-1.34 -0.76 2.78 0.64 8.02 0.64C11.32 0.64 14.19 0.11 16.61 -0.97C19.04 -2.04 20.88 -3.33 22.15 -4.83C23.41 -6.33 24.05 -7.64 24.05 -8.76C24.05 -9.1 23.91 -9.39 23.63 -9.63C23.35 -9.86 23.02 -9.98 22.63 -9.98L14.2 -9.98C13.68 -9.98 13.31 -9.93 13.07 -9.82C12.83 -9.71 12.52 -9.44 12.14 -9.01C11.58 -8.37 10.99 -7.84 10.37 -7.44C9.74 -7.03 8.92 -6.82 7.89 -6.82C6.3 -6.82 5.08 -7.41 4.22 -8.6C3.36 -9.78 2.91 -11.33 2.87 -13.26L2.87 -13.65L23.28 -13.65C23.75 -13.65 24.14 -13.81 24.47 -14.13C24.79 -14.45 24.95 -14.85 24.95 -15.32L24.95 -16.93C24.95 -20.24 24.32 -23.19 23.05 -25.79C21.78 -28.38 19.87 -30.42 17.32 -31.9C14.77 -33.38 11.64 -34.12 7.95 -34.12C2.84 -34.12 -1.21 -32.69 -4.22 -29.81C-7.22 -26.93 -8.81 -22.94 -8.98 -17.83L-8.98 -15.84C-8.9 -10.47 -7.35 -6.38 -4.35 -3.57ZM13.1 -20.22L2.87 -20.22L2.87 -20.35C2.87 -22.41 3.31 -24 4.19 -25.14C5.06 -26.28 6.32 -26.85 7.95 -26.85C9.58 -26.85 10.85 -26.28 11.75 -25.14C12.65 -24 13.1 -22.41 13.1 -20.35Z M31.19 -38.6C31.49 -38.28 31.88 -38.12 32.35 -38.12L40.4 -38.12C40.87 -38.12 41.27 -38.28 41.59 -38.6C41.91 -38.92 42.08 -39.32 42.08 -39.79L42.08 -45.78C42.08 -46.25 41.91 -46.65 41.59 -46.97C41.27 -47.29 40.87 -47.45 40.4 -47.45L32.35 -47.45C31.92 -47.45 31.55 -47.29 31.23 -46.97C30.9 -46.65 30.74 -46.25 30.74 -45.78L30.74 -39.79C30.74 -39.32 30.89 -38.92 31.19 -38.6ZM31.23 -0.48C31.55 -0.16 31.92 0 32.35 0L40.4 0C40.87 0 41.27 -0.15 41.59 -0.45C41.91 -0.75 42.08 -1.14 42.08 -1.61L42.08 -31.87C42.08 -32.34 41.91 -32.73 41.59 -33.03C41.27 -33.33 40.87 -33.48 40.4 -33.48L32.35 -33.48C31.92 -33.48 31.55 -33.33 31.23 -33.03C30.9 -32.73 30.74 -32.34 30.74 -31.87L30.74 -1.61C30.74 -1.18 30.9 -0.8 31.23 -0.48Z M49.9 -0.48C50.22 -0.16 50.6 0 51.03 0L59.59 0C60.06 0 60.45 -0.16 60.75 -0.48C61.05 -0.8 61.2 -1.18 61.2 -1.61L61.2 -19.19C61.2 -21.08 61.69 -22.55 62.68 -23.6C63.67 -24.65 65.02 -25.17 66.73 -25.17C68.49 -25.17 69.84 -24.66 70.76 -23.63C71.68 -22.6 72.14 -21.12 72.14 -19.19L72.14 -1.61C72.14 -1.14 72.3 -0.75 72.63 -0.45C72.95 -0.15 73.35 0 73.82 0L82.38 0C82.85 0 83.24 -0.16 83.54 -0.48C83.84 -0.8 83.99 -1.18 83.99 -1.61L83.99 -19.57C83.99 -22.66 83.44 -25.3 82.35 -27.49C81.25 -29.68 79.75 -31.33 77.84 -32.45C75.93 -33.57 73.75 -34.12 71.31 -34.12C68.95 -34.12 66.85 -33.69 65.03 -32.84C63.2 -31.98 61.71 -30.84 60.55 -29.42L60.55 -31.87C60.55 -32.34 60.4 -32.73 60.1 -33.03C59.8 -33.33 59.42 -33.48 58.94 -33.48L51.03 -33.48C50.6 -33.48 50.22 -33.33 49.9 -33.03C49.58 -32.73 49.42 -32.34 49.42 -31.87L49.42 -1.61C49.42 -1.18 49.58 -0.8 49.9 -0.48Z M92.2 -0.48C92.52 -0.16 92.9 0 93.33 0L110.58 0C123.5 0 130.18 -5.88 130.6 -17.64C130.65 -18.84 130.67 -20.47 130.67 -22.53C130.67 -24.6 130.65 -26.25 130.6 -27.49C130.43 -33.16 128.59 -37.5 125.07 -40.53C121.55 -43.56 116.61 -45.07 110.26 -45.07L93.33 -45.07C92.85 -45.07 92.47 -44.91 92.17 -44.59C91.87 -44.26 91.72 -43.87 91.72 -43.4L91.72 -1.61C91.72 -1.18 91.88 -0.8 92.2 -0.48ZM110.26 -9.66L103.82 -9.66L103.82 -35.41L109.94 -35.41C112.64 -35.41 114.69 -34.76 116.09 -33.45C117.48 -32.14 118.22 -30.11 118.31 -27.36C118.39 -26.16 118.44 -24.57 118.44 -22.6C118.44 -20.62 118.39 -19.01 118.31 -17.77C118.22 -14.94 117.53 -12.88 116.25 -11.59C114.96 -10.3 112.96 -9.66 110.26 -9.66Z M138.49 -0.48C138.81 -0.16 139.19 0 139.62 0L160.09 0C165.42 0 169.5 -1.2 172.36 -3.61C175.21 -6.01 176.64 -9.38 176.64 -13.71C176.64 -15.95 176.04 -17.95 174.84 -19.73C173.64 -21.52 172.15 -22.79 170.39 -23.56C171.73 -24.25 172.94 -25.35 174.03 -26.85C175.13 -28.35 175.67 -30.13 175.67 -32.19C175.67 -36.31 174.34 -39.49 171.68 -41.72C169.02 -43.95 164.96 -45.07 159.51 -45.07L139.62 -45.07C139.15 -45.07 138.76 -44.91 138.46 -44.59C138.16 -44.26 138.01 -43.87 138.01 -43.4L138.01 -1.61C138.01 -1.18 138.17 -0.8 138.49 -0.48ZM158.16 -27.23L150.11 -27.23L150.11 -36.38L158.16 -36.38C159.79 -36.38 161.03 -35.96 161.86 -35.12C162.7 -34.28 163.12 -33.2 163.12 -31.87C163.12 -30.5 162.69 -29.38 161.83 -28.52C160.97 -27.66 159.75 -27.23 158.16 -27.23ZM158.74 -8.69L150.11 -8.69L150.11 -18.8L158.74 -18.8C160.37 -18.8 161.66 -18.32 162.6 -17.35C163.55 -16.39 164.02 -15.17 164.02 -13.71C164.02 -12.3 163.56 -11.11 162.64 -10.14C161.71 -9.17 160.41 -8.69 158.74 -8.69Z"></path></g><g id="SvgjsG82434" class="jl_1aqik2" transform="translate(7.105427357601002e-15, 0) scale(0.5865844285307987)" light-content="false" non-strokable="false" fill="#aa4444" fill-rule="evenodd" clip-rule="evenodd"><path class="fil0" d="M63 18l-45 90 9 10-27 47h87l-40 71h14l81-96-81-5 21-32-14-7 58-80z"></path><path class="fil0" d="M92 2l-5 11 50-2-58 80 14 7-21 32 81 5-85 100h9l94-111-81-4 21-33-14-7 58-80z"></path></g></g></g></svg>