<svg xmlns="http://www.w3.org/2000/svg" id="SvgjsSvg278209" width="4096" height="4010.8123390099245" version="1.1" xmlns:xlink="http://www.w3.org/1999/xlink" xmlns:svgjs="http://svgjs.com/svgjs"><defs id="SvgjsDefs278210"></defs><rect id="SvgjsRect278211" width="4096" height="4010.8123390099245" fill="#1b27f0"></rect><g id="SvgjsG278212" transform="translate(328, 328) scale(34.4)" opacity="1"><defs id="SvgjsDefs69225"></defs><g id="SvgjsG69226" transform="scale(0.3108346170413684)" opacity="1"><g id="SvgjsG69227" class="text" transform="translate(160.15, 313.22823649836874) scale(1)" light-content="false" fill="#95d4dd"><path d="M-143.03 -57.69C-144.45 -57.34 -149.46 -54.3 -158.06 -48.55C-158.19 -48.48 -158.29 -48.42 -158.36 -48.37C-159.53 -47.6 -160.13 -46.66 -160.15 -45.57C-160.15 -44.5 -159.68 -43.66 -158.73 -43.04C-158.21 -42.71 -157.66 -42.55 -157.09 -42.55C-156.65 -42.55 -155.2 -43.3 -152.77 -44.79C-151.33 -45.66 -149.37 -46.88 -146.91 -48.44C-147.14 -45.68 -147.82 -40.61 -148.96 -33.23C-150.08 -25.97 -150.64 -20.06 -150.64 -15.51C-150.64 -7.11 -148.5 -2.09 -144.23 -0.45C-143.23 -0.07 -142.14 0.11 -140.95 0.11C-132.42 0.11 -125.05 -3.92 -118.83 -11.97C-114.23 -17.89 -110.79 -25.17 -108.5 -33.82C-108.48 -33.85 -108.46 -33.87 -108.46 -33.9C-104.44 -34.45 -100.98 -35.56 -98.1 -37.25C-95.66 -38.7 -94.43 -40.19 -94.4 -41.73C-94.4 -42.82 -94.86 -43.63 -95.78 -44.15C-96.18 -44.38 -96.57 -44.49 -96.94 -44.49C-97.86 -44.49 -99.03 -44.04 -100.45 -43.15C-102.44 -41.9 -104.1 -41.06 -105.44 -40.61C-105.99 -40.41 -106.54 -40.25 -107.08 -40.13C-106.91 -42.29 -106.82 -43.86 -106.82 -44.83C-106.82 -49.08 -108.13 -52.48 -110.74 -55.04C-113.05 -57.28 -115.93 -58.4 -119.39 -58.4C-122.05 -58.4 -124.46 -57.48 -126.63 -55.64C-129.09 -53.48 -130.33 -50.84 -130.35 -47.73C-130.35 -43.21 -128.76 -39.67 -125.58 -37.11C-122.85 -34.92 -119.22 -33.72 -114.69 -33.53C-116.83 -26.09 -119.86 -20 -123.79 -15.25C-128.46 -9.63 -133.79 -6.81 -139.75 -6.79C-142.98 -6.81 -144.6 -9.96 -144.6 -16.22C-144.6 -17.76 -143.88 -24.28 -142.44 -35.76C-141.87 -40.41 -141.07 -46.75 -140.05 -54.78C-140.1 -55.85 -140.61 -56.68 -141.58 -57.28C-142.05 -57.55 -142.54 -57.69 -143.03 -57.69ZM-124.31 -46.8C-124.31 -48.72 -123.47 -50.18 -121.78 -51.2C-120.76 -51.8 -119.63 -52.1 -118.38 -52.1C-115.82 -52.1 -114.1 -50.79 -113.2 -48.18C-112.88 -47.19 -112.72 -46.13 -112.72 -45.01C-112.72 -43.4 -112.91 -41.53 -113.31 -39.42C-118.56 -39.42 -121.95 -40.79 -123.49 -43.52C-124.04 -44.49 -124.31 -45.58 -124.31 -46.8Z M-90.15 -28.9C-90.15 -30.79 -90.73 -31.87 -91.87 -32.15C-92.14 -32.2 -92.42 -32.22 -92.69 -32.22C-94.33 -32.22 -95.35 -30.98 -95.75 -28.49L-95.82 -27.82C-95.95 -26.75 -96.16 -25.09 -96.46 -22.82C-97.13 -17.97 -97.46 -14.72 -97.46 -13.05C-97.46 -8.18 -96.42 -4.62 -94.33 -2.39C-92.94 -0.92 -91.19 -0.19 -89.07 -0.19C-86.56 -0.19 -84.16 -0.98 -81.87 -2.57C-80.01 -3.99 -79.03 -5.33 -78.93 -6.6C-78.93 -7.42 -79.28 -8.08 -79.97 -8.58C-80.32 -8.83 -80.67 -8.95 -81.02 -8.95C-81.84 -8.95 -82.92 -8.45 -84.26 -7.46C-85.63 -6.46 -86.67 -5.88 -87.39 -5.71C-87.67 -5.66 -87.93 -5.63 -88.18 -5.63C-89.35 -5.63 -90.28 -6.38 -90.97 -7.87C-91.45 -8.86 -91.68 -9.93 -91.68 -11.08C-91.68 -12.79 -91.3 -17.18 -90.53 -24.24C-90.28 -26.63 -90.15 -28.18 -90.15 -28.9ZM-94.4 -38.67C-94.4 -37.55 -93.92 -36.75 -92.95 -36.25C-92.55 -36.05 -92.13 -35.95 -91.68 -35.95C-90.56 -35.95 -89.76 -36.43 -89.26 -37.4C-89.06 -37.8 -88.96 -38.22 -88.96 -38.67C-88.96 -39.79 -89.45 -40.6 -90.41 -41.1C-90.81 -41.29 -91.24 -41.39 -91.68 -41.39C-92.8 -41.39 -93.61 -40.91 -94.11 -39.94C-94.31 -39.54 -94.4 -39.12 -94.4 -38.67Z M-73.07 -31.33C-77.13 -31.1 -80.11 -28.64 -82.02 -23.94C-83.24 -20.96 -83.85 -17.65 -83.85 -14.02C-83.85 -8.01 -82.1 -3.84 -78.59 -1.53C-77.08 -0.56 -75.56 -0.07 -74.04 -0.07C-69.79 -0.07 -66.73 -2.26 -64.87 -6.64C-63.73 -9.32 -63.14 -12.6 -63.12 -16.48C-60.71 -17.45 -58.74 -18.63 -57.22 -20.03C-56.16 -21.05 -55.61 -21.98 -55.58 -22.82C-55.58 -23.67 -55.97 -24.34 -56.74 -24.84C-57.09 -25.06 -57.45 -25.17 -57.82 -25.17C-58.59 -25.17 -59.72 -24.66 -61.21 -23.64C-62.31 -22.9 -63.09 -22.39 -63.56 -22.11C-64.43 -27.26 -66.78 -30.24 -70.61 -31.06C-71.38 -31.21 -72.2 -31.3 -73.07 -31.33ZM-68.41 -15.51C-68.66 -10.79 -69.69 -7.73 -71.51 -6.34C-72.13 -5.87 -72.83 -5.63 -73.6 -5.63C-75.93 -5.63 -77.45 -7.33 -78.15 -10.74C-78.37 -11.86 -78.48 -13.01 -78.48 -14.21C-78.48 -16.67 -78.16 -18.94 -77.51 -21.03C-76.57 -18.25 -74.45 -16.51 -71.17 -15.81C-70.3 -15.64 -69.38 -15.54 -68.41 -15.51ZM-68.97 -20.59C-70.49 -20.59 -71.52 -21.34 -72.07 -22.86C-72.24 -23.38 -72.33 -23.92 -72.33 -24.46C-72.33 -25.09 -72.05 -25.5 -71.51 -25.69C-71.38 -25.72 -71.26 -25.73 -71.13 -25.73C-69.72 -25.71 -68.82 -23.99 -68.45 -20.59Z M-43.17 0C-40.56 0 -38.13 -0.81 -35.89 -2.42C-34.1 -3.79 -33.18 -5.12 -33.13 -6.41C-33.13 -7.26 -33.49 -7.93 -34.22 -8.43C-34.54 -8.65 -34.87 -8.76 -35.22 -8.76C-36.02 -8.76 -37.12 -8.28 -38.54 -7.31C-40.01 -6.27 -41.15 -5.67 -41.97 -5.52C-42.25 -5.47 -42.51 -5.44 -42.76 -5.44C-46.48 -5.44 -49.29 -7.63 -51.18 -12.01C-52.2 -14.37 -53.13 -17.91 -53.98 -22.64C-50.9 -25.12 -47.95 -28.37 -45.14 -32.37C-40.72 -38.66 -38.5 -44.38 -38.5 -49.52C-38.5 -54.25 -40.65 -56.75 -44.96 -57.02C-45.23 -57.04 -45.49 -57.06 -45.74 -57.06C-50.46 -57.06 -54.12 -53.53 -56.7 -46.47C-58.29 -42.09 -59.26 -37.28 -59.61 -32.03C-59.66 -31.41 -59.69 -30.9 -59.69 -30.5C-59.69 -22.8 -58.62 -16.28 -56.48 -10.96C-53.59 -3.9 -49.16 -0.25 -43.17 0ZM-45.7 -51.43C-44.78 -51.43 -44.12 -50.88 -43.72 -49.78C-43.63 -49.51 -43.58 -49.28 -43.58 -49.08C-43.58 -45.2 -45.64 -40.44 -49.77 -34.79C-51.26 -32.73 -52.75 -30.94 -54.24 -29.42C-53.97 -39.62 -52.41 -46.32 -49.58 -49.52C-48.46 -50.77 -47.17 -51.4 -45.7 -51.43Z M-38.39 -11.41C-38.39 -4.55 -36.08 -0.65 -31.46 0.3C-30.69 0.45 -29.85 0.52 -28.96 0.52C-26.6 0.52 -23.86 -0.15 -20.75 -1.49C-17.4 -2.93 -15.38 -4.46 -14.71 -6.08C-14.59 -6.43 -14.53 -6.75 -14.53 -7.05C-14.53 -7.94 -14.92 -8.63 -15.72 -9.1C-16.07 -9.3 -16.4 -9.4 -16.73 -9.4C-17.3 -9.4 -18.28 -8.94 -19.67 -8.02C-21.81 -6.63 -23.66 -5.74 -25.23 -5.37C-26.12 -5.17 -27.03 -5.07 -27.95 -5.07C-30.04 -5.25 -31.42 -5.84 -32.09 -6.86C-32.59 -7.66 -32.84 -8.78 -32.84 -10.22C-32.84 -10.89 -32.81 -11.41 -32.76 -11.78C-32.11 -11.66 -31.46 -11.6 -30.78 -11.6C-27.23 -11.6 -24.11 -12.72 -21.42 -14.95C-18.69 -17.22 -17.2 -20.01 -16.95 -23.34C-16.92 -23.64 -16.91 -23.93 -16.91 -24.2C-16.91 -27.88 -18.55 -30.19 -21.83 -31.14C-22.75 -31.39 -23.71 -31.51 -24.71 -31.51C-28.41 -31.51 -31.58 -29.49 -34.22 -25.43C-36.38 -22.13 -37.72 -18.35 -38.24 -14.1C-38.34 -13.15 -38.39 -12.26 -38.39 -11.41ZM-26.42 -25.66C-25.55 -26.23 -24.68 -26.53 -23.81 -26.55C-22.59 -26.53 -21.98 -25.56 -21.98 -23.64C-21.98 -21.73 -22.84 -20.08 -24.56 -18.68C-26.1 -17.42 -27.9 -16.78 -29.96 -16.78C-30.54 -16.78 -31.13 -16.86 -31.75 -17.01C-30.46 -21.26 -28.68 -24.14 -26.42 -25.66Z M-13.7 -41.28C-15.12 -41.28 -16.05 -40.76 -16.5 -39.72C-16.65 -39.34 -16.73 -38.93 -16.73 -38.49C-16.73 -36.84 -15.87 -35.95 -14.15 -35.8L-13.7 -35.8L-10.35 -35.8C-12.31 -20.04 -13.29 -11.8 -13.29 -11.08C-13.29 -7.79 -12.5 -5.07 -10.91 -2.91C-9.34 -0.87 -7.33 0.16 -4.87 0.19C-2.36 0.19 0.02 -0.62 2.26 -2.24C4.1 -3.63 5.05 -4.97 5.13 -6.27C5.13 -7.18 4.68 -7.87 3.79 -8.32C3.46 -8.47 3.13 -8.54 2.78 -8.54C1.96 -8.54 0.94 -8.06 -0.28 -7.09C-1.52 -6.12 -2.48 -5.54 -3.15 -5.37C-3.45 -5.3 -3.74 -5.26 -4.01 -5.26C-5.15 -5.26 -6.07 -6 -6.77 -7.5C-7.24 -8.49 -7.48 -9.56 -7.48 -10.7C-7.48 -12.52 -6.51 -20.88 -4.57 -35.8L0.06 -35.8C1.35 -35.8 2.28 -36.27 2.85 -37.22C3.08 -37.62 3.19 -38.04 3.19 -38.49C3.19 -39.5 2.75 -40.28 1.88 -40.8C1.39 -41.07 0.8 -41.21 0.13 -41.21L-3.79 -41.21C-2.79 -49.01 -2.29 -53.22 -2.29 -53.81C-2.29 -55.7 -2.87 -56.78 -4.01 -57.06C-4.28 -57.11 -4.56 -57.13 -4.83 -57.13C-6.2 -57.13 -7.1 -56.31 -7.55 -54.67C-7.7 -54.15 -7.83 -53.5 -7.92 -52.73L-9.57 -41.21C-10.68 -41.21 -11.94 -41.23 -13.33 -41.28Z M0.5 -11.71C0.5 -6.44 1.76 -2.88 4.27 -1.04C5.44 -0.22 6.82 0.19 8.41 0.19C10.95 0.19 13.44 -0.97 15.91 -3.28C16.35 -3.7 16.75 -4.13 17.1 -4.55C18.59 -1.42 20.9 0.16 24.03 0.19C26.57 0.19 28.97 -0.61 31.23 -2.2C33.12 -3.59 34.1 -4.93 34.18 -6.23C34.18 -7.05 33.82 -7.71 33.1 -8.2C32.75 -8.43 32.41 -8.54 32.09 -8.54C31.27 -8.54 30.18 -8.04 28.81 -7.05C27.42 -6.05 26.35 -5.48 25.6 -5.33C25.35 -5.28 25.12 -5.26 24.89 -5.26C23.75 -5.26 22.83 -6 22.13 -7.5C21.66 -8.49 21.42 -9.56 21.42 -10.7C21.42 -12.42 21.81 -16.81 22.58 -23.87C22.83 -26.25 22.95 -27.81 22.95 -28.53C22.95 -30.29 22.42 -31.35 21.35 -31.7C21.23 -31.77 20.91 -31.81 20.42 -31.81C19.55 -31.79 18.86 -31.47 18.37 -30.88C17.17 -31.5 15.78 -31.81 14.19 -31.81C10.49 -31.81 7.32 -29.8 4.68 -25.77C2.52 -22.46 1.17 -18.67 0.65 -14.39C0.55 -13.45 0.5 -12.55 0.5 -11.71ZM16.91 -23.98C16.66 -21.12 16.04 -17.56 15.05 -13.31C14.5 -11.03 14.07 -9.65 13.74 -9.17C13.22 -8.45 12.39 -7.68 11.24 -6.86C10.12 -6.04 9.18 -5.62 8.41 -5.59C6.94 -5.59 6.17 -7.11 6.1 -10.14L6.1 -10.52C6.1 -13.8 6.81 -17.07 8.22 -20.32C9.81 -23.95 11.77 -26.09 14.08 -26.74C14.55 -26.86 15.01 -26.92 15.46 -26.92C16.05 -26.92 16.63 -26.79 17.17 -26.51Z M49.28 -58.32C47.42 -58.32 45.45 -58.18 43.39 -57.88C42.12 -57.88 41.23 -57.32 40.7 -56.2C40.53 -55.8 40.43 -55.39 40.41 -54.97L33.62 -3.62C33.62 -2.23 34.1 -1.18 35.07 -0.48C35.57 -0.16 36.12 0 36.71 0C39.7 0.17 41.93 0.26 43.43 0.26C55.78 0.26 63.64 -3.37 67 -10.63C67.99 -12.79 68.57 -15.25 68.75 -18.01C68.72 -24.82 65.38 -29.24 58.72 -31.25C63.14 -34.73 65.38 -39.8 65.43 -46.47C65.23 -54.32 59.85 -58.28 49.28 -58.32ZM42.87 -26.89C48.66 -26.71 52.86 -26.28 55.47 -25.58C60.32 -24.22 62.76 -21.69 62.78 -18.01C62.78 -12.62 59.74 -8.95 53.64 -7.01C50.71 -6.09 47.29 -5.63 43.39 -5.63C42.59 -5.63 41.49 -5.68 40.07 -5.78ZM46.04 -52.62C46.66 -52.69 47.26 -52.73 47.83 -52.73C52.15 -52.73 55.21 -52.17 57 -51.05C58.64 -49.96 59.47 -48.39 59.5 -46.35C59.5 -38.03 54.95 -33.61 45.85 -33.12C45.15 -33.07 44.4 -33.04 43.58 -33.04Z M85.94 -57.8C84.37 -57.8 83.42 -57.01 83.07 -55.42L82.99 -54.97C82.82 -53.65 82.26 -49.62 81.32 -42.89C77.88 -18.35 76.17 -5.11 76.17 -3.17C76.17 -1.95 76.65 -1.04 77.62 -0.45C78.12 -0.15 78.67 0 79.26 0C80.98 0 81.97 -0.97 82.25 -2.91C82.27 -2.98 82.28 -3.03 82.28 -3.06L85.23 -25.17L101.71 -25.17C103.26 -25.42 104.25 -26.08 104.7 -27.15C104.85 -27.5 104.92 -27.84 104.92 -28.19C104.92 -29.49 104.32 -30.41 103.13 -30.95C102.63 -31.18 102.09 -31.29 101.49 -31.29L85.98 -31.29L88.59 -51.72L109.99 -51.72C111.48 -51.95 112.48 -52.59 112.98 -53.66C113.15 -54.01 113.24 -54.38 113.24 -54.78C113.24 -56.2 112.55 -57.13 111.19 -57.58C110.74 -57.73 110.27 -57.8 109.77 -57.8Z M161.57 -54.71C161.57 -56.07 160.88 -57.02 159.52 -57.54C159.12 -57.69 158.75 -57.77 158.4 -57.77L119.02 -57.77C117.75 -57.77 116.82 -57.27 116.22 -56.27C115.92 -55.75 115.77 -55.19 115.77 -54.6C115.77 -53.4 116.43 -52.58 117.75 -52.13C118.27 -51.96 118.82 -51.87 119.39 -51.87L135.31 -51.87C135.07 -49.91 134.43 -45.16 133.41 -37.63C130.4 -15.25 128.9 -3.92 128.9 -3.62C128.9 -2.18 129.37 -1.13 130.32 -0.48C130.76 -0.16 131.29 0 131.88 0C133.5 0 134.51 -0.87 134.9 -2.61L134.98 -3.06C135.2 -4.23 137.3 -20.5 141.28 -51.87L158.32 -51.87C159.57 -51.87 160.5 -52.33 161.12 -53.25C161.42 -53.7 161.57 -54.19 161.57 -54.71Z"></path></g><g id="SvgjsG69228" class="NlysU93wK" transform="translate(41.501069715116664, -13.446278275280395) scale(2.4466422150597134)" light-content="false" non-strokable="false" fill="#aa4444"><path d="M44.258 56.385l-5.818 5.314 4.245 4.66 12.973-11.845 20.604 34.734H13.265l23.81-40.137 7.183 7.274zm12.885-11.816L48.92 52.08 35.797 38.84 2.162 95.572h85.233L57.143 44.569zm25.918-31.884c-2.523-5.967-9.382-8.788-15.35-6.264C62.131 8.766 59.25 15 61.092 20.79c-3.326-1.781-7.482-.475-9.233 2.85-1.751 3.355-.476 7.481 2.851 9.233 3.354 1.781 7.51.475 9.262-2.85a6.956 6.956 0 0 0 .771-3.859c4.929 4.156 12.32 3.533 16.477-1.425.416-.535.803-1.069 1.129-1.663 2.672 3.325 7.511 3.83 10.836 1.158 3.295-2.672 3.8-7.511 1.128-10.836-2.672-3.295-7.54-3.77-10.806-1.098-.18.088-.298.237-.446.385z"></path><path d="M51.918 38.395a3.637 3.637 0 0 0-3.622-3.622c-1.989 0-3.592 1.633-3.592 3.622a3.586 3.586 0 0 0 3.592 3.592c1.989 0 3.622-1.604 3.622-3.592z"></path></g></g></g></svg>